# AST/ASF file generated using VICON BodyLanguage
# -----------------------------------------------
:version 1.10
:name VICON
:units
  mass 1.0
  length 0.45
  angle deg
:documentation
   .ast/.asf automatically generated from VICON data using
   VICON BodyBuilder and BodyLanguage model FoxedUp or BRILLIANT.MOD
:root
   order TX TY TZ RX RY RZ
   axis XYZ
   position 0 0 0  
   orientation 0 0 0 
:bonedata
  begin
     id 1 
     name lhipjoint
     direction 0.722297 -0.617336 0.311742 
     length 2.6635 
     axis 0 0 0  XYZ
  end
  begin
     id 2 
     name lfemur
     direction 0.34202 -0.939693 0  
     length 7.39349  
     axis 0 0 20  XYZ
    dof rx ry rz
    limits (-160.0 20.0)
           (-70.0 70.0)
           (-60.0 70.0)
  end
  begin
     id 3 
     name ltibia
     direction 0.34202 -0.939693 0   
     length 7.36294   
     axis 0 0 20   XYZ
    dof rx
    limits (-10.0 170.0)
  end
  begin
     id 4 
     name lfoot
     direction 0.104879 -0.288152 0.951824   
     length 2.16981   
     axis -90 7.62852e-016 20   XYZ
    dof rx rz
    limits (-45.0 90.0)
           (-70.0 20.0)
  end
  begin
     id 5 
     name ltoes
     direction 1.53586e-011 -4.21895e-011 1   
     length 1.08218   
     axis -90 7.62852e-016 20   XYZ
    dof rx
    limits (-90.0 20.0)
  end
  begin
     id 6 
     name rhipjoint
     direction -0.75102 -0.589393 0.297631   
     length 2.78977  
     axis 0 0 0  XYZ 
  end
  begin
     id 7 
     name rfemur
     direction -0.34202 -0.939693 0   
     length 7.46076   
     axis 0 0 -20   XYZ
    dof rx ry rz
    limits (-160.0 20.0)
           (-70.0 70.0)
           (-70.0 60.0)
  end
  begin
     id 8 
     name rtibia
     direction -0.34202 -0.939693 0   
     length 7.31726   
     axis 0 0 -20   XYZ
    dof rx
    limits (-10.0 170.0)
 end
 begin
     id 9 
     name rfoot
     direction -0.107991 -0.296704 0.948844   
     length 2.09388  
     axis -90 -7.62852e-016 -20   XYZ
    dof rx rz
    limits (-45.0 90.0)
           (-20.0 70.0)
  end
  begin
     id 10 
     name rtoes
     direction -1.53559e-011 -4.21911e-011 1   
     length 1.04433   
     axis -90 -7.62852e-016 -20   XYZ
    dof rx
    limits (-90.0 20.0)
  end
  begin
     id 11 
     name lowerback
     direction 0.0165164 0.98272 0.184358   
     length 1.71896   
     axis 0 0 0   XYZ
    dof rx ry rz
    limits (-20.0 45.0)
           (-30.0 30.0)
           (-30.0 30.0)
  end
  begin
     id 12 
     name upperback
     direction -0.00887249 0.992297 0.123566   
     length 1.71504   
     axis 0 0 0   XYZ
    dof rx ry rz
    limits (-20.0 45.0)
           (-30.0 30.0)
           (-30.0 30.0)
  end
  begin
     id 13 
     name thorax
     direction -0.0157026 0.998908 0.0440032   
     length 1.77022   
     axis 0 0 0   XYZ
    dof rx ry rz
    limits (-20.0 45.0)
           (-30.0 30.0)
           (-30.0 30.0)
  end
  begin
     id 14 
     name lowerneck
     direction -0.0238856 0.998137 0.0561411   
     length 1.89341   
     axis 0 0 0   XYZ
    dof rx ry rz
    limits (-20.0 45.0)
           (-30.0 30.0)
           (-30.0 30.0)
  end
  begin
     id 15 
     name upperneck
     direction 0.0276574 0.952253 -0.304056   
     length 1.86999   
     axis 0 0 0   XYZ
    dof rx ry rz
    limits (-20.0 45.0)
           (-30.0 30.0)
           (-30.0 30.0)
  end
  begin
     id 16
     name head
     direction 0.00800083 0.994258 -0.106712  
     length 1.91492  
     axis 0 0 0   XYZ
    dof rx ry rz
    limits (-20.0 45.0)
           (-30.0 30.0)
           (-30.0 30.0)
  end
  begin
     id 17 
     name lclavicle
     direction 0.97203 0.225407 0.06595  
     length 3.34889  
     axis 0 0 0   XYZ
    dof ry rz
    limits (-20.0 10.0)
           (0.0 20.0)
  end
  begin
     id 18 
     name lhumerus
     direction 1 -4.48973e-011 2.20267e-027   
     length 4.85645   
     axis 180 -30 -90   XYZ
    dof rx ry rz
    limits (-60.0 90.0)
           (-90.0 90.0)
           (-90.0 90.0)
  end
  begin
     id 19
     name lradius
     direction 1 -4.4897e-011 4.60472e-027   
     length 2.79874   
     axis 180 -30 -90   XYZ
    dof rx
    limits (-10.0 170.0)
  end
  begin
     id 20
     name lwrist
     direction 1 -4.48952e-011 1.14928e-026   
     length 1.39937   
     axis -6.29373e-015 90 90   XYZ
    dof ry
    limits (-180.0 0.0)
 end
  begin
     id 21 
     name lhand
     direction 1 -4.48967e-011 2.29886e-026   
     length 0.573398   
     axis -1.46689e-014 90 90   XYZ
    dof rx rz
    limits (-90.0 90.0)
           (-45.0 45.0)
  end
  begin
     id 22 
     name lfingers
     direction 1 -4.48955e-011 4.59726e-026   
     length 0.462289   
     axis -2.93383e-014 90 90   XYZ
    dof rx
    limits (0.0 90.0)
  end
  begin
     id 23
     name lthumb
     direction 0.707107 -6.34866e-011 0.707107   
     length 0.663757   
     axis -90 45 5.69224e-014   XYZ
    dof rx rz
    limits (-45.0 45.0)
           (-45.0 45.0)
  end
  begin
     id 24 
     name rclavicle
     direction -0.981571 0.157346 0.108443   
     length 3.35257  
     axis 0 0 0   XYZ 
    dof ry rz
    limits (-10.0 20.0)
           (-20.0 0.0)
  end
  begin
     id 25 
     name rhumerus
     direction -1 -4.48967e-011 8.58308e-029  
     length 4.67018   
     axis 180 30 90   XYZ
    dof rx ry rz
    limits (-90.0 60.0)
           (-90.0 90.0)
           (-90.0 90.0)
  end
  begin
     id 26 
     name rradius
     direction -1 -4.48958e-011 4.52548e-027   
     length 2.65534   
     axis 180 30 90   XYZ
    dof rx
    limits (-10.0 170.0)
  end
  begin
     id 27 
     name rwrist
     direction -1 -4.48977e-011 1.14952e-026   
     length 1.32767   
     axis -6.29373e-015 -90 -90   XYZ
    dof ry
    limits (-180.0 0.0)
  end
  begin
     id 28
     name rhand
     direction -1 -4.48924e-011 2.29804e-026   
     length 0.594069   
     axis -1.46689e-014 -90 -90   XYZ
    dof rx rz
    limits (-90.0 90.0)
           (-45.0 45.0)
  end
  begin
     id 29
     name rfingers
     direction -1 -4.48998e-011 4.59888e-026   
     length 0.478954   
     axis -2.93383e-014 -90 -90   XYZ
    dof rx
    limits (0.0 90.0)
  end
  begin
     id 30
     name rthumb
     direction -0.707107 -6.34933e-011 0.707107   
     length 0.687685   
     axis -90 -45 -5.69224e-014   XYZ
    dof rx rz
    limits (-45.0 45.0)
           (-45.0 45.0)
  end
:hierarchy
  begin
    root lhipjoint rhipjoint lowerback
    lhipjoint lfemur
    lfemur ltibia
    ltibia lfoot
    lfoot ltoes
    rhipjoint rfemur
    rfemur rtibia
    rtibia rfoot
    rfoot rtoes
    lowerback upperback
    upperback thorax
    thorax lowerneck lclavicle rclavicle
    lowerneck upperneck
    upperneck head
    lclavicle lhumerus
    lhumerus lradius
    lradius lwrist
    lwrist lhand lthumb
    lhand lfingers
    rclavicle rhumerus
    rhumerus rradius
    rradius rwrist
    rwrist rhand rthumb
    rhand rfingers
  end

#!OML:ASF E:\pregnant2\Project 1\Capture day 1\Session 1\pregnant2.ASF
:FULLY-SPECIFIED
:DEGREES
1
root -4.22782 15.5728 20.1629 28.0437 5.94042 -0.759218
lowerback -20.5219 0.782962 2.07942
upperback -16.112 0.807575 -0.516654
thorax -6.16825 0.232516 -1.61052
lowerneck -15.6437 -3.97751 -5.09773
upperneck 35.0417 -5.6241 3.44758
head 15.0859 -2.59813 1.35724
rclavicle -1.20016e-014 -9.93923e-017
rhumerus -22.0194 6.41829 -79.4642
rradius 115.421
rwrist 37.5996
rhand -7.08273 -8.48432
rfingers 7.12502
rthumb 18.7913 -37.5967
lclavicle -1.20016e-014 -9.93923e-017
lhumerus -26.4594 -1.93259 79.9132
lradius 118.192
lwrist -28.1204
lhand -9.41073 15.6009
lfingers 7.12502
lthumb 16.551 44.915
rfemur -57.3496 -2.86223 19.8212
rtibia 64.438
rfoot -28.9893 -14.6201
rtoes -14.0036
lfemur -58.2651 6.71649 -20.2354
ltibia 63.9387
lfoot -28.888 5.79408
ltoes -13.8065
2
root -4.22772 15.5727 20.1632 28.0378 5.93768 -0.756975
lowerback -20.5175 0.794496 2.08939
upperback -16.1113 0.821004 -0.534885
thorax -6.16884 0.237379 -1.63386
lowerneck -15.654 -3.98493 -5.08158
upperneck 35.0803 -5.636 3.43196
head 15.1062 -2.60289 1.34589
rclavicle 4.19933e-015 6.06293e-015
rhumerus -22.0318 6.39415 -79.4789
rradius 115.422
rwrist 37.6105
rhand -7.06388 -8.43976
rfingers 7.12502
rthumb 18.8094 -37.5503
lclavicle 4.19933e-015 6.06293e-015
lhumerus -26.436 -1.94642 79.9238
lradius 118.182
lwrist -28.1505
lhand -9.40681 15.6155
lfingers 7.12502
lthumb 16.5548 44.9293
rfemur -57.3417 -2.85572 19.8145
rtibia 64.4331
rfoot -29.0351 -14.6279
rtoes -13.9378
lfemur -58.2412 6.71094 -20.2267
ltibia 63.9223
lfoot -28.8801 5.75747
ltoes -13.669
3
root -4.22775 15.5738 20.1639 28.0262 5.93527 -0.757424
lowerback -20.6652 0.824757 2.02428
upperback -16.0498 0.866428 -0.552951
thorax -6.02089 0.268 -1.60805
lowerneck -15.5851 -4.01433 -5.07293
upperneck 35.0036 -5.68175 3.43118
head 15.0559 -2.62225 1.33655
rclavicle 6.03808e-015 -5.66536e-015
rhumerus -22.0056 6.25988 -79.4016
rradius 115.427
rwrist 37.6345
rhand -6.97198 -8.45121
rfingers 7.12502
rthumb 18.8978 -37.5532
lclavicle 6.03808e-015 -5.66536e-015
lhumerus -26.2439 -1.98004 80.0413
lradius 118.067
lwrist -28.3595
lhand -9.33639 15.6058
lfingers 7.12502
lthumb 16.6226 44.914
rfemur -57.3161 -2.84687 19.8083
rtibia 64.4118
rfoot -29.0346 -14.627
rtoes -13.849
lfemur -58.216 6.70783 -20.2194
ltibia 63.899
lfoot -28.8804 5.72674
ltoes -13.6793
4
root -4.22825 15.5765 20.1642 28.0166 5.92452 -0.740864
lowerback -20.5435 0.804734 2.05838
upperback -16.0989 0.837906 -0.553644
thorax -6.1404 0.248196 -1.63383
lowerneck -15.617 -3.98455 -5.07938
upperneck 35.1144 -5.6366 3.42572
head 15.1135 -2.604 1.34377
rclavicle 9.74045e-015 6.16232e-015
rhumerus -22.0842 6.36206 -79.5148
rradius 115.456
rwrist 37.5115
rhand -6.87925 -8.45705
rfingers 7.12502
rthumb 18.987 -37.5503
lclavicle 9.74045e-015 6.16232e-015
lhumerus -26.4302 -1.95645 79.9521
lradius 118.158
lwrist -28.1942
lhand -9.37561 15.5848
lfingers 7.12502
lthumb 16.5849 44.8962
rfemur -57.2933 -2.86868 19.8006
rtibia 64.389
rfoot -28.9873 -14.6125
rtoes -13.9744
lfemur -58.1827 6.70701 -20.2372
ltibia 63.868
lfoot -28.8649 5.73274
ltoes -13.6851
5
root -4.2285 15.5787 20.1646 28.0061 5.92002 -0.733295
lowerback -20.5287 0.806264 2.05524
upperback -16.1043 0.840585 -0.561403
thorax -6.15384 0.249166 -1.64024
lowerneck -15.6054 -3.98044 -5.08098
upperneck 35.148 -5.63035 3.4218
head 15.1264 -2.60214 1.34401
rclavicle 9.69075e-016 3.97569e-015
rhumerus -22.125 6.36188 -79.5522
rradius 115.494
rwrist 37.4113
rhand -6.70449 -8.47296
rfingers 7.12502
rthumb 19.155 -37.5497
lclavicle 9.69075e-016 3.97569e-015
lhumerus -26.459 -1.96135 79.952
lradius 118.161
lwrist -28.1821
lhand -9.37234 15.5791
lfingers 7.12502
lthumb 16.588 44.8902
rfemur -57.2676 -2.87915 19.7968
rtibia 64.3617
rfoot -28.9787 -14.5996
rtoes -13.9712
lfemur -58.152 6.70514 -20.2426
ltibia 63.8399
lfoot -28.8536 5.72605
ltoes -13.6883
6
root -4.22877 15.5811 20.1649 27.9956 5.91805 -0.72634
lowerback -20.514 0.807209 2.05383
upperback -16.1092 0.842268 -0.568428
thorax -6.16682 0.249528 -1.64697
lowerneck -15.595 -3.97617 -5.08267
upperneck 35.181 -5.62326 3.41663
head 15.1392 -2.6001 1.34388
rclavicle -1.56543e-014 -1.00386e-014
rhumerus -22.1672 6.36237 -79.5908
rradius 115.541
rwrist 37.2973
rhand -6.50376 -8.49535
rfingers 7.12502
rthumb 19.348 -37.5528
lclavicle -1.56543e-014 -1.00386e-014
lhumerus -26.4904 -1.96859 79.9509
lradius 118.165
lwrist -28.1618
lhand -9.36776 15.5758
lfingers 7.12502
lthumb 16.5924 44.8865
rfemur -57.2409 -2.89135 19.795
rtibia 64.333
rfoot -28.97 -14.5867
rtoes -13.9679
lfemur -58.1218 6.70369 -20.2492
ltibia 63.8101
lfoot -28.8392 5.73023
ltoes -13.729
7
root -4.22908 15.5834 20.1652 27.9851 5.91726 -0.719048
lowerback -20.496 0.80724 2.05336
upperback -16.115 0.842721 -0.574521
thorax -6.18249 0.249192 -1.65345
lowerneck -15.5878 -3.97152 -5.08519
upperneck 35.2153 -5.61485 3.41046
head 15.1533 -2.5977 1.34366
rclavicle 4.44781e-015 2.68359e-015
rhumerus -22.2066 6.36655 -79.6269
rradius 115.584
rwrist 37.1943
rhand -6.32214 -8.51426
rfingers 7.12502
rthumb 19.5227 -37.5541
lclavicle 4.44781e-015 2.68359e-015
lhumerus -26.5266 -1.97793 79.9478
lradius 118.172
lwrist -28.1354
lhand -9.36439 15.5761
lfingers 7.12502
lthumb 16.5956 44.8866
rfemur -57.2148 -2.90223 19.7928
rtibia 64.3061
rfoot -28.9627 -14.5782
rtoes -13.9667
lfemur -58.0924 6.7031 -20.2572
ltibia 63.7831
lfoot -28.8244 5.74151
ltoes -13.7858
8
root -4.22939 15.5854 20.1655 27.9766 5.91852 -0.712154
lowerback -20.4924 0.809319 2.04952
upperback -16.1159 0.846026 -0.581346
thorax -6.18518 0.250805 -1.65822
lowerneck -15.5784 -3.96984 -5.08752
upperneck 35.2415 -5.61051 3.40389
head 15.1632 -2.5971 1.34247
rclavicle 2.20403e-014 4.17448e-015
rhumerus -22.2375 6.36319 -79.6486
rradius 115.617
rwrist 37.1233
rhand -6.18452 -8.52782
rfingers 7.12502
rthumb 19.655 -37.5542
lclavicle 2.20403e-014 4.17448e-015
lhumerus -26.5483 -1.99273 79.9523
lradius 118.173
lwrist -28.1236
lhand -9.35677 15.5827
lfingers 7.12502
lthumb 16.603 44.8925
rfemur -57.1918 -2.91157 19.7904
rtibia 64.2812
rfoot -28.957 -14.5734
rtoes -13.958
lfemur -58.0661 6.70076 -20.2637
ltibia 63.7563
lfoot -28.8093 5.74944
ltoes -13.8288
9
root -4.22976 15.5871 20.1657 27.9701 5.92128 -0.704896
lowerback -20.4919 0.810626 2.04565
upperback -16.1151 0.848259 -0.587274
thorax -6.1843 0.251984 -1.66211
lowerneck -15.576 -3.96831 -5.08923
upperneck 35.2664 -5.60539 3.39521
head 15.174 -2.59628 1.3403
rclavicle -1.25234e-014 -8.44835e-015
rhumerus -22.2585 6.36446 -79.6634
rradius 115.637
rwrist 37.0829
rhand -6.10504 -8.53599
rfingers 7.12502
rthumb 19.7314 -37.5545
lclavicle -1.25234e-014 -8.44835e-015
lhumerus -26.5675 -2.00634 79.9546
lradius 118.175
lwrist -28.1148
lhand -9.34698 15.5883
lfingers 7.12502
lthumb 16.6124 44.8973
rfemur -57.172 -2.91712 19.7861
rtibia 64.2584
rfoot -28.9463 -14.5768
rtoes -13.9543
lfemur -58.0421 6.69684 -20.2695
ltibia 63.7282
lfoot -28.7925 5.7555
ltoes -13.8618
10
root -4.23017 15.5888 20.1661 27.9649 5.92324 -0.697105
lowerback -20.5011 0.812144 2.03751
upperback -16.1099 0.851168 -0.59141
thorax -6.17347 0.254164 -1.66144
lowerneck -15.5739 -3.96886 -5.09744
upperneck 35.282 -5.60179 3.3891
head 15.1809 -2.59664 1.33998
rclavicle -2.5842e-015 1.75924e-014
rhumerus -22.2674 6.37149 -79.6672
rradius 115.647
rwrist 37.0777
rhand -6.07078 -8.55698
rfingers 7.12502
rthumb 19.7643 -37.5721
lclavicle -2.5842e-015 1.75924e-014
lhumerus -26.583 -2.01849 79.9567
lradius 118.179
lwrist -28.1121
lhand -9.36269 15.5869
lfingers 7.12502
lthumb 16.5973 44.8972
rfemur -57.1536 -2.92194 19.7808
rtibia 64.2356
rfoot -28.931 -14.5797
rtoes -13.9564
lfemur -58.0178 6.69241 -20.2751
ltibia 63.6971
lfoot -28.7748 5.75725
ltoes -13.8821
11
root -4.2306 15.5908 20.1665 27.9611 5.92701 -0.691578
lowerback -20.508 0.813128 2.03209
upperback -16.1068 0.853114 -0.593619
thorax -6.16624 0.255669 -1.6604
lowerneck -15.5722 -3.96821 -5.10588
upperneck 35.2968 -5.59573 3.38167
head 15.1873 -2.59618 1.33957
rclavicle 4.32357e-015 -1.49089e-015
rhumerus -22.275 6.38071 -79.6697
rradius 115.655
rwrist 37.0713
rhand -6.04551 -8.57255
rfingers 7.12502
rthumb 19.7886 -37.5852
lclavicle 4.32357e-015 -1.49089e-015
lhumerus -26.6023 -2.02973 79.9568
lradius 118.183
lwrist -28.1129
lhand -9.37351 15.5848
lfingers 7.12502
lthumb 16.5869 44.896
rfemur -57.1354 -2.92619 19.7778
rtibia 64.2103
rfoot -28.913 -14.5809
rtoes -13.9566
lfemur -57.9938 6.68551 -20.2749
ltibia 63.6625
lfoot -28.7563 5.74761
ltoes -13.8642
